<mxfile host="app.diagrams.net" modified="2023-12-09T11:38:02.574Z" agent="Mozilla/5.0 (Windows NT 10.0; Win64; x64) AppleWebKit/537.36 (KHTML, like Gecko) Chrome/119.0.0.0 Safari/537.36" etag="fRA1_-RAy-E00WLpdoXs" version="22.1.7" type="google">
  <diagram name="ページ1" id="p0fOTjHy_Il1GDMIgXhH">
    <mxGraphModel grid="1" page="1" gridSize="10" guides="1" tooltips="1" connect="1" arrows="1" fold="1" pageScale="1" pageWidth="827" pageHeight="1169" math="0" shadow="0">
      <root>
        <mxCell id="0" />
        <mxCell id="1" parent="0" />
        <mxCell id="SNqweDmdIm7YdErnOrF4-6" style="edgeStyle=orthogonalEdgeStyle;rounded=0;orthogonalLoop=1;jettySize=auto;html=1;exitX=0.5;exitY=1;exitDx=0;exitDy=0;entryX=0.5;entryY=0;entryDx=0;entryDy=0;" edge="1" parent="1" source="rgU1yi6LhXlpxPELx0VI-7" target="SNqweDmdIm7YdErnOrF4-3">
          <mxGeometry relative="1" as="geometry" />
        </mxCell>
        <mxCell id="rgU1yi6LhXlpxPELx0VI-7" value="データ送信&lt;br&gt;(controller)&lt;br&gt;(開始)" style="shape=process;whiteSpace=wrap;html=1;backgroundOutline=1;" vertex="1" parent="1">
          <mxGeometry x="354" y="80" width="120" height="60" as="geometry" />
        </mxCell>
        <mxCell id="rgU1yi6LhXlpxPELx0VI-8" value="データ送信&lt;br&gt;(controller)&lt;br&gt;(終了)" style="shape=process;whiteSpace=wrap;html=1;backgroundOutline=1;" vertex="1" parent="1">
          <mxGeometry x="354" y="450" width="120" height="60" as="geometry" />
        </mxCell>
        <mxCell id="SNqweDmdIm7YdErnOrF4-7" style="edgeStyle=orthogonalEdgeStyle;rounded=0;orthogonalLoop=1;jettySize=auto;html=1;exitX=0.5;exitY=1;exitDx=0;exitDy=0;entryX=0.5;entryY=0;entryDx=0;entryDy=0;" edge="1" parent="1" source="SNqweDmdIm7YdErnOrF4-3" target="SNqweDmdIm7YdErnOrF4-4">
          <mxGeometry relative="1" as="geometry" />
        </mxCell>
        <mxCell id="SNqweDmdIm7YdErnOrF4-3" value="データ受け取り" style="rounded=1;whiteSpace=wrap;html=1;arcSize=50;" vertex="1" parent="1">
          <mxGeometry x="354" y="200" width="120" height="60" as="geometry" />
        </mxCell>
        <mxCell id="SNqweDmdIm7YdErnOrF4-8" style="edgeStyle=orthogonalEdgeStyle;rounded=0;orthogonalLoop=1;jettySize=auto;html=1;exitX=0.5;exitY=1;exitDx=0;exitDy=0;entryX=0.5;entryY=0;entryDx=0;entryDy=0;" edge="1" parent="1" source="SNqweDmdIm7YdErnOrF4-4" target="rgU1yi6LhXlpxPELx0VI-8">
          <mxGeometry relative="1" as="geometry" />
        </mxCell>
        <mxCell id="SNqweDmdIm7YdErnOrF4-4" value="データ送信先&lt;br style=&quot;border-color: var(--border-color);&quot;&gt;受け取り" style="rounded=1;whiteSpace=wrap;html=1;arcSize=50;" vertex="1" parent="1">
          <mxGeometry x="354" y="330" width="120" height="60" as="geometry" />
        </mxCell>
      </root>
    </mxGraphModel>
  </diagram>
</mxfile>
